#!OML:ASF H:\MichaelJackson\Top Level 1\Subject 1\Session 1\male.ASF
:FULLY-SPECIFIED
:DEGREES
512
root -13.8271 16.7164 10.0621 0.137145 -9.57299 -1.76646
lowerback 8.59985 2.43233 -0.200216
upperback 2.94809 3.22647 0.947709
thorax -1.82905 1.60131 0.76546
lowerneck -7.84411 5.55207 8.95342
upperneck 7.26845 7.20903 -8.5212
head 4.08681 3.40764 -3.61633
rclavicle -1.32316e-014 -1.14301e-014
rhumerus -11.6633 10.6067 -72.5702
rradius 88.1295
rwrist 4.22222
rhand -39.7127 -34.4342
rfingers 7.12502
rthumb -12.6908 -424.029
lclavicle -1.32316e-014 -1.14301e-014
lhumerus -53.8168 -11.6421 91.4527
lradius 53.3892
lwrist 12.8634
lhand -18.022 18.6654
lfingers 7.12502
lthumb 8.24911 48.4844
rfemur -63.5219 9.60813 4.08332
rtibia 61.8016
rfoot 10.6709 13.2792
rtoes 10.1042
lfemur -25.1181 -5.72309 -23.6502
ltibia 44.4507
lfoot -18.0142 14.5018
ltoes 34.6551
513
root -13.8804 16.6984 10.1664 -0.166095 -7.96613 -1.36044
lowerback 8.57926 2.5229 -0.797381
upperback 2.92035 3.2939 0.729754
thorax -1.86782 1.63529 0.867855
lowerneck -8.09307 5.51276 8.88047
upperneck 7.74713 7.139 -8.19825
head 4.25239 3.37907 -3.50086
rclavicle 4.0813e-015 -8.52289e-015
rhumerus -13.8127 14.3341 -75.805
rradius 88.6239
rwrist 5.78124
rhand -34.1708 -28.6901
rfingers 7.12502
rthumb -7.34445 -418.543
lclavicle 4.0813e-015 -8.52289e-015
lhumerus -53.0436 -12.0377 91.0031
lradius 53.4643
lwrist 13.1465
lhand -17.9178 18.9444
lfingers 7.12502
lthumb 8.34967 48.7593
rfemur -64.524 8.85964 6.00502
rtibia 65.5725
rfoot 11.1742 13.7718
rtoes 7.3176
lfemur -24.6547 -5.92127 -24.1014
ltibia 44.7307
lfoot -18.2906 13.3788
ltoes 33.7839
514
root -13.9342 16.6819 10.274 -0.370073 -6.12241 -1.03139
lowerback 8.50203 2.63485 -1.30365
upperback 2.84852 3.39897 0.546298
thorax -1.9195 1.6887 0.952328
lowerneck -8.39001 5.42477 8.71762
upperneck 8.23323 7.00982 -7.88232
head 4.42111 3.31842 -3.37686
rclavicle -1.56729e-014 -3.35449e-015
rhumerus -16.1164 17.6546 -79.1943
rradius 88.7765
rwrist 7.184
rhand -28.3346 -24.2374
rfingers 7.12502
rthumb -1.70905 -414.21
lclavicle -1.56729e-014 -3.35449e-015
lhumerus -52.0808 -12.3917 90.6239
lradius 53.4774
lwrist 13.1154
lhand -17.4358 19.0777
lfingers 7.12502
lthumb 8.81481 48.8736
rfemur -65.4169 8.25622 7.73706
rtibia 69.2579
rfoot 11.5206 14.3271
rtoes 5.24402
lfemur -24.2722 -6.17203 -24.4604
ltibia 45.004
lfoot -18.5274 12.1107
ltoes 32.8344
515
root -13.9874 16.6674 10.3849 -0.501394 -4.02974 -0.788178
lowerback 8.39216 2.7645 -1.70865
upperback 2.75013 3.53783 0.403682
thorax -1.97928 1.75959 1.01946
lowerneck -8.7138 5.28323 8.46544
upperneck 8.66741 6.81666 -7.58914
head 4.57208 3.22284 -3.25078
rclavicle -2.95692e-014 2.28105e-014
rhumerus -18.5194 20.4979 -82.6834
rradius 88.626
rwrist 8.51305
rhand -22.2683 -20.8145
rfingers 7.12502
rthumb 4.14967 -410.754
lclavicle -2.95692e-014 2.28105e-014
lhumerus -50.9674 -12.7164 90.35
lradius 53.4828
lwrist 12.7751
lhand -16.6131 19.0426
lfingers 7.12502
lthumb 9.60863 48.8035
rfemur -66.1564 7.74476 9.31951
rtibia 72.758
rfoot 11.7704 15.1833
rtoes 3.48586
lfemur -23.9436 -6.51406 -24.725
ltibia 45.2707
lfoot -18.7334 10.724
ltoes 31.8518
516
root -14.0388 16.6553 10.4987 -0.558913 -1.72155 -0.635079
lowerback 8.24624 2.91669 -2.00773
upperback 2.62847 3.71743 0.30117
thorax -2.04186 1.8513 1.06563
lowerneck -9.04357 5.08805 8.1446
upperneck 9.01484 6.5606 -7.33839
head 4.69315 3.09255 -3.13282
rclavicle -7.87684e-015 1.22253e-014
rhumerus -20.9546 22.846 -86.2184
rradius 88.2061
rwrist 9.78691
rhand -16.2403 -18.0906
rfingers 7.12502
rthumb 9.96835 -407.835
lclavicle -7.87684e-015 1.22253e-014
lhumerus -49.7695 -13.0463 90.2246
lradius 53.5382
lwrist 12.1881
lhand -15.5718 18.8839
lfingers 7.12502
lthumb 10.6132 48.5959
rfemur -66.7593 7.31486 10.7754
rtibia 75.9949
rfoot 11.964 16.4823
rtoes 1.2276
lfemur -23.6774 -6.94395 -24.8941
ltibia 45.5329
lfoot -18.9185 9.23425
ltoes 30.9101
517
root -14.0888 16.6437 10.6153 -0.565141 0.79893 -0.550891
lowerback 8.0789 3.08562 -2.23274
upperback 2.49469 3.92705 0.23462
thorax -2.105 1.95829 1.10528
lowerneck -9.31912 4.8473 7.77211
upperneck 9.22102 6.25418 -7.13695
head 4.75966 2.9349 -3.02826
rclavicle -1.25234e-014 -6.75868e-015
rhumerus -23.3476 24.7184 -89.7233
rradius 87.5633
rwrist 10.9678
rhand -10.4267 -15.8739
rfingers 7.12502
rthumb 15.5727 -405.267
lclavicle -1.25234e-014 -6.75868e-015
lhumerus -48.5412 -13.4396 90.2871
lradius 53.6816
lwrist 11.4998
lhand -14.4454 18.6153
lfingers 7.12502
lthumb 11.6996 48.2686
rfemur -67.207 6.93048 12.1285
rtibia 78.933
rfoot 12.0259 18.374
rtoes -2.45639
lfemur -23.458 -7.46688 -24.9934
ltibia 45.7885
lfoot -19.0923 7.65783
ltoes 30.0079
518
root -14.1375 16.6333 10.7337 -0.536494 3.52013 -0.522198
lowerback 7.90752 3.26469 -2.40777
upperback 2.35067 4.15523 0.196066
thorax -2.17685 2.0748 1.14407
lowerneck -9.59779 4.54826 7.39326
upperneck 9.35893 5.87877 -7.02365
head 4.80503 2.7384 -2.95634
rclavicle 3.27001e-014 -5.06901e-015
rhumerus -25.6397 26.1824 -93.1221
rradius 86.7435
rwrist 12.0055
rhand -5.38004 -13.9685
rfingers 7.12502
rthumb 20.4282 -402.914
lclavicle 3.27001e-014 -5.06901e-015
lhumerus -47.3344 -13.9507 90.5557
lradius 53.9321
lwrist 10.8456
lhand -13.3553 18.2493
lfingers 7.12502
lthumb 12.7507 47.8399
rfemur -67.5175 6.58871 13.3707
rtibia 81.5438
rfoot 12.198 20.6498
rtoes -6.46022
lfemur -23.2763 -8.06834 -25.034
ltibia 46.0386
lfoot -19.2681 5.99227
ltoes 29.1553
519
root -14.1854 16.6252 10.8536 -0.485551 6.42687 -0.524606
lowerback 7.73267 3.44604 -2.57124
upperback 2.20603 4.38828 0.179547
thorax -2.24945 2.1939 1.19897
lowerneck -9.85048 4.20431 6.95228
upperneck 9.4131 5.45289 -6.92158
head 4.81723 2.5152 -2.88287
rclavicle 4.95347e-014 3.18055e-015
rhumerus -27.7976 27.3046 -96.353
rradius 85.8137
rwrist 12.8569
rhand -1.57239 -12.2739
rfingers 7.12502
rthumb 24.0835 -400.782
lclavicle 4.95347e-014 3.18055e-015
lhumerus -46.1608 -14.608 91.0332
lradius 54.2641
lwrist 10.3517
lhand -12.3664 17.8141
lfingers 7.12502
lthumb 13.7039 47.3429
rfemur -67.7139 6.27722 14.4925
rtibia 83.8257
rfoot 12.6687 23.0926
rtoes -10.1547
lfemur -23.1169 -8.7329 -25.0379
ltibia 46.271
lfoot -19.4552 4.22898
ltoes 28.3633
